<svg width="17" height="13" viewBox="0 0 17 13" fill="none" xmlns="http://www.w3.org/2000/svg">
<path d="M16.8125 1.75C16.8125 2.05385 16.6965 2.35785 16.4646 2.58941L6.9646 12.0894C6.73359 12.3225 6.4293 12.4375 6.125 12.4375C5.8207 12.4375 5.51715 12.3215 5.28559 12.0896L0.535586 7.3396C0.303652 7.10859 0.1875 6.8043 0.1875 6.5C0.1875 5.82164 0.742285 5.3125 1.375 5.3125C1.67885 5.3125 1.98285 5.42847 2.21441 5.6604L6.125 9.57266L14.7863 0.911328C15.0164 0.678652 15.3207 0.5625 15.625 0.5625C16.2596 0.5625 16.8125 1.0709 16.8125 1.75Z" fill="black"/>
</svg>
